<svg xmlns="http://www.w3.org/2000/svg" viewBox="0 0 324.02 118.67"><defs><style>.cls-1{fill:#414042;}.cls-2{fill:#808285;}.cls-3{fill:#58595b;}.cls-4{fill:#939598;}.cls-5{fill:#ff5c35;}.cls-6{fill:#ff926f;}.cls-7{fill:#ff7049;}.cls-8{fill:#ffa283;}</style></defs><g id="Layer_2" data-name="Layer 2"><g id="Layer_1-2" data-name="Layer 1"><polygon class="cls-1" points="0.44 39.34 31.11 39.34 67.53 77.67 0.44 39.34"/><polygon class="cls-2" points="32.54 39.69 68 60.12 68 77.07 32.54 39.69"/><polygon class="cls-3" points="0.44 38.34 67.53 0 31.11 38.34 0.44 38.34"/><polygon class="cls-4" points="68 1.35 68 17.65 32.54 38.73 68 1.35"/><polygon class="cls-5" points="67.53 79.34 36.86 79.34 0.44 41 67.53 79.34"/><polygon class="cls-6" points="35.46 78.98 0 58.55 0 41.61 35.46 78.98"/><polygon class="cls-7" points="67.53 80.34 0.44 118.67 36.86 80.34 67.53 80.34"/><polygon class="cls-8" points="0 117.32 0 101.03 35.46 79.94 0 117.32"/><path class="cls-1" d="M78.82,73.08a36.93,36.93,0,0,0,3.69,1.12,19.7,19.7,0,0,0,4.7.48c2.91,0,5.1-.59,6.54-1.79a5.94,5.94,0,0,0,2.16-4.83,6.59,6.59,0,0,0-.45-2.56,4.94,4.94,0,0,0-1.37-1.84,9.94,9.94,0,0,0-2.27-1.42c-.9-.43-2-.89-3.17-1.39L85.6,59.63a20.61,20.61,0,0,1-2.82-1.42,8.63,8.63,0,0,1-2.22-1.89,8.77,8.77,0,0,1-1.47-2.59,10.43,10.43,0,0,1-.53-3.5,9.34,9.34,0,0,1,3.31-7.61q3.3-2.74,9.29-2.75A26.08,26.08,0,0,1,96,40.3a24.65,24.65,0,0,1,4,1.07A16.6,16.6,0,0,1,98.9,45.8a24.71,24.71,0,0,0-3.34-1,19.25,19.25,0,0,0-4.3-.43,8.46,8.46,0,0,0-5.17,1.36,4.77,4.77,0,0,0-1.82,4.09,4.36,4.36,0,0,0,.45,2,5.65,5.65,0,0,0,1.21,1.55,8.76,8.76,0,0,0,1.76,1.2,21.81,21.81,0,0,0,2.13,1l3,1.17a31.42,31.42,0,0,1,3.79,1.79,11.42,11.42,0,0,1,2.83,2.19,8.39,8.39,0,0,1,1.79,3,11.85,11.85,0,0,1,.62,4,10.73,10.73,0,0,1-3.79,8.67q-3.8,3.18-10.63,3.18c-1.1,0-2.1,0-3-.11A24.2,24.2,0,0,1,82,79.11a21.18,21.18,0,0,1-2.22-.53c-.71-.21-1.44-.45-2.19-.7a11.86,11.86,0,0,1,.48-2.4C78.27,74.66,78.54,73.86,78.82,73.08Z"/><path class="cls-1" d="M114.76,45.26h-10a11.44,11.44,0,0,1-.16-1.17c0-.43,0-.84,0-1.23s0-.79,0-1.2.09-.79.16-1.15h25.42c.07.36.12.73.16,1.12s.05.79.05,1.18,0,.81-.05,1.25a11.34,11.34,0,0,1-.16,1.2h-10V78.9a20.07,20.07,0,0,1-2.67.16,21.76,21.76,0,0,1-2.77-.16Z"/><path class="cls-1" d="M135.58,40.46l2.14-.21c.64-.08,1.27-.14,1.89-.19s1.27-.1,1.95-.13,1.42-.06,2.24-.06a27.17,27.17,0,0,1,5.4.54A13.56,13.56,0,0,1,154,42.27a10.32,10.32,0,0,1,3.39,3.61,11.37,11.37,0,0,1,1.31,5.74,10,10,0,0,1-.7,3.79,12.15,12.15,0,0,1-4.19,5.36,19.54,19.54,0,0,1-2.64,1.63l-.64.32L161.64,78.9a29.13,29.13,0,0,1-3.26.16,25.27,25.27,0,0,1-2.88-.16L143.22,61.12v-.21l.42-.11a26.47,26.47,0,0,0,3.05-1,12.6,12.6,0,0,0,3-1.69,9.23,9.23,0,0,0,2.27-2.51,6.64,6.64,0,0,0,.91-3.55q0-3.84-2.27-5.71a9.38,9.38,0,0,0-6.12-1.87q-.9,0-1.68.06c-.51,0-1.09.09-1.73.16V78.9l-1.31.11c-.48,0-.93,0-1.36,0L137,79a11.54,11.54,0,0,1-1.39-.13Z"/><path class="cls-1" d="M186.25,70H171.67l-2.61,8.86c-.47.07-.93.12-1.39.16s-.93,0-1.39,0-1,0-1.47,0-.92-.09-1.31-.16L176,40.51c.46-.07,1-.12,1.49-.16s1.09-.05,1.66-.05,1,0,1.54.05,1.05.09,1.55.16L194.68,78.9c-.42.07-.91.12-1.44.16s-1.05,0-1.55,0-.93,0-1.41,0-.94-.09-1.36-.16Zm-13.14-4.76h11.7l-5.88-19.59Z"/><path class="cls-1" d="M201.19,45.26h-10a11.44,11.44,0,0,1-.16-1.17c0-.43,0-.84,0-1.23s0-.79,0-1.2.09-.79.16-1.15h25.42c.07.36.12.73.16,1.12s.05.79.05,1.18,0,.81-.05,1.25a11.34,11.34,0,0,1-.16,1.2h-10V78.9a20.07,20.07,0,0,1-2.67.16,21.76,21.76,0,0,1-2.77-.16Z"/><path class="cls-1" d="M221.53,40.51h21.08a15.5,15.5,0,0,1,.16,2.35c0,.39,0,.8,0,1.23a7.82,7.82,0,0,1-.14,1.17H227v11h12.49a8,8,0,0,1,.16,1.15q.06.62.06,1.2t-.06,1.23a7.69,7.69,0,0,1-.16,1.17H227V74.15H243a15.41,15.41,0,0,1,.16,2.35c0,.39,0,.8,0,1.22A7,7,0,0,1,243,78.9H221.53Z"/><path class="cls-1" d="M270.64,59c.43-.07.87-.13,1.33-.16s.93-.06,1.39-.06.93,0,1.39.06A11.46,11.46,0,0,1,276,59V77.78a18.64,18.64,0,0,1-2.46.83,23.82,23.82,0,0,1-2.77.53c-1,.12-1.92.22-2.88.29s-1.87.11-2.73.11a21,21,0,0,1-7.69-1.34,15.11,15.11,0,0,1-5.76-3.87,17.19,17.19,0,0,1-3.61-6.16A25.26,25.26,0,0,1,246.88,60a25.52,25.52,0,0,1,1.28-8.31,18,18,0,0,1,3.66-6.32,16.07,16.07,0,0,1,5.66-4,18.13,18.13,0,0,1,7.29-1.42,31.12,31.12,0,0,1,5.28.4,22,22,0,0,1,4.06,1.1,9.93,9.93,0,0,1-.45,2.27c-.24.69-.51,1.43-.83,2.21-1-.32-2.08-.6-3.23-.85a21.08,21.08,0,0,0-4.35-.38,12.71,12.71,0,0,0-5.16,1,10.64,10.64,0,0,0-3.95,3,14,14,0,0,0-2.53,4.81A21.4,21.4,0,0,0,252.7,60a20.54,20.54,0,0,0,.93,6.54,12.75,12.75,0,0,0,2.65,4.59,10.51,10.51,0,0,0,4,2.72,14.35,14.35,0,0,0,5.15.88,20.13,20.13,0,0,0,3-.19,15.49,15.49,0,0,0,2.19-.45Z"/><path class="cls-1" d="M283.66,40.51c.43-.07.87-.12,1.34-.16s.92-.05,1.39-.05.92,0,1.38.05.91.09,1.34.16V78.9c-.43.07-.87.12-1.31.16s-.92,0-1.41,0-.94,0-1.42,0-.92-.09-1.31-.16Z"/><path class="cls-1" d="M322.48,73.29A14.48,14.48,0,0,1,324,77.72a20.39,20.39,0,0,1-4.59,1.39,27.94,27.94,0,0,1-5.07.43,19.62,19.62,0,0,1-7.5-1.36,15.27,15.27,0,0,1-5.64-3.9,17.27,17.27,0,0,1-3.52-6.17A25.34,25.34,0,0,1,296.42,60a26.38,26.38,0,0,1,1.23-8.31,18,18,0,0,1,3.52-6.32,15.28,15.28,0,0,1,5.61-4,18.59,18.59,0,0,1,7.42-1.42,27.24,27.24,0,0,1,5.23.43,28.93,28.93,0,0,1,3.9,1,9.82,9.82,0,0,1-.45,2.27c-.24.7-.51,1.44-.83,2.22-.53-.18-1.05-.34-1.55-.48s-1-.27-1.6-.38-1.2-.18-1.9-.24-1.48-.08-2.37-.08a11,11,0,0,0-9.05,4q-3.24,4-3.23,11.38a21,21,0,0,0,.91,6.56,12.28,12.28,0,0,0,2.56,4.59,10.5,10.5,0,0,0,4,2.73,14.25,14.25,0,0,0,5.2.9,20.13,20.13,0,0,0,4.06-.37A17,17,0,0,0,322.48,73.29Z"/><path class="cls-5" d="M158.84,91.76a8,8,0,0,1,1.27-.1,8.5,8.5,0,0,1,1.3.1v10.55h4.43c0,.21.06.4.07.58s0,.36,0,.53,0,.37,0,.56,0,.37-.07.58h-7Z"/><path class="cls-5" d="M168.38,91.76h7.26a5.68,5.68,0,0,1,.11,1.09,5.83,5.83,0,0,1-.11,1.12H171v2.78h3.7a5.66,5.66,0,0,1,0,2.22H171v3.38h4.79a5.67,5.67,0,0,1,.1,1.09,5.83,5.83,0,0,1-.1,1.12h-7.39Z"/><path class="cls-5" d="M185,97.92a8,8,0,0,1,1.28-.11,8.66,8.66,0,0,1,1.3.11v6.28a8,8,0,0,1-1.93.45,15.27,15.27,0,0,1-1.76.12,7.05,7.05,0,0,1-2.74-.49,5.29,5.29,0,0,1-1.95-1.37,5.66,5.66,0,0,1-1.18-2.09,8.53,8.53,0,0,1-.39-2.63,8.41,8.41,0,0,1,.41-2.65,6.16,6.16,0,0,1,1.18-2.1,5.24,5.24,0,0,1,1.91-1.39,6.33,6.33,0,0,1,2.57-.5,11.24,11.24,0,0,1,1.59.11,6.57,6.57,0,0,1,1.54.44,4,4,0,0,1-.22,1c-.11.34-.24.68-.39,1a7,7,0,0,0-1.1-.31,6.27,6.27,0,0,0-1.14-.09,3.2,3.2,0,0,0-2.62,1.12,5.09,5.09,0,0,0-.92,3.3,4.94,4.94,0,0,0,.91,3.26,3.28,3.28,0,0,0,2.67,1.08,3,3,0,0,0,.54,0l.44-.07Z"/><path class="cls-5" d="M193,91.76l.71-.08.75,0,.69,0,.75.08,4,12.8a10.12,10.12,0,0,1-1.43.1,8,8,0,0,1-1.31-.1l-.72-2.57h-4.23l-.73,2.57a7.64,7.64,0,0,1-1.23.1,8,8,0,0,1-1.3-.1Zm2.85,8.08-1.48-5.37-1.55,5.37Z"/><path class="cls-5" d="M202.15,91.76a8,8,0,0,1,1.27-.1,8.59,8.59,0,0,1,1.3.1v10.55h4.43c0,.21,0,.4.07.58s0,.36,0,.53,0,.37,0,.56,0,.37-.07.58h-7Z"/><path class="cls-5" d="M217.53,98.63a6.49,6.49,0,0,1-1.09-.51,3.31,3.31,0,0,1-.82-.65,2.76,2.76,0,0,1-.52-.92,3.75,3.75,0,0,1-.19-1.28,3.81,3.81,0,0,1,.31-1.6,3.29,3.29,0,0,1,.88-1.17,4,4,0,0,1,1.37-.71,6.27,6.27,0,0,1,1.8-.24,8.39,8.39,0,0,1,1.7.16,13.48,13.48,0,0,1,1.66.46,6.24,6.24,0,0,1-.57,2l-.54-.21a4.55,4.55,0,0,0-.59-.18,6,6,0,0,0-.7-.12c-.26,0-.56,0-.89,0a4.18,4.18,0,0,0-.61,0,1.62,1.62,0,0,0-.56.2,1,1,0,0,0-.41.42,1.37,1.37,0,0,0-.16.72,1.29,1.29,0,0,0,.12.59,1.23,1.23,0,0,0,.34.41,1.92,1.92,0,0,0,.48.29l.53.22,1.07.41c.45.18.86.36,1.23.55a3.34,3.34,0,0,1,.93.7,2.87,2.87,0,0,1,.6,1,4.44,4.44,0,0,1,.21,1.47,4.05,4.05,0,0,1-.33,1.65,3.43,3.43,0,0,1-.95,1.28,4.38,4.38,0,0,1-1.54.84,6.76,6.76,0,0,1-2.11.3c-.39,0-.74,0-1.05,0a8.13,8.13,0,0,1-.88-.11,5.8,5.8,0,0,1-.82-.21,8.87,8.87,0,0,1-.86-.3,7.39,7.39,0,0,1,.2-1.07,9.7,9.7,0,0,1,.34-1.13,9,9,0,0,0,1.4.45,6.35,6.35,0,0,0,1.41.15,3.2,3.2,0,0,0,1.76-.42,1.41,1.41,0,0,0,.64-1.27,1.43,1.43,0,0,0-.54-1.19,2.51,2.51,0,0,0-.55-.33l-.62-.26Z"/><path class="cls-5" d="M230.37,104.77a5.79,5.79,0,0,1-2.49-.5,4.61,4.61,0,0,1-1.73-1.38,5.92,5.92,0,0,1-1-2.08,9.84,9.84,0,0,1-.33-2.62,10.18,10.18,0,0,1,.33-2.65,6,6,0,0,1,1-2.1,4.54,4.54,0,0,1,1.73-1.39,6.45,6.45,0,0,1,5,0,4.54,4.54,0,0,1,1.73,1.39,6,6,0,0,1,1,2.1,10.18,10.18,0,0,1,.33,2.65,9.84,9.84,0,0,1-.33,2.62,5.92,5.92,0,0,1-1,2.08,4.61,4.61,0,0,1-1.73,1.38A5.79,5.79,0,0,1,230.37,104.77Zm0-2.17q2.76,0,2.76-4.41a6.45,6.45,0,0,0-.67-3.31,2.24,2.24,0,0,0-2.07-1.11c-1.86,0-2.79,1.48-2.79,4.42S228.52,102.6,230.37,102.6Z"/><path class="cls-5" d="M238.25,91.76a8,8,0,0,1,1.26-.1,8.41,8.41,0,0,1,1.3.1v10.55h4.43c0,.21.06.4.08.58s0,.36,0,.53,0,.37,0,.56,0,.37-.08.58h-7Z"/><path class="cls-5" d="M246.69,91.76c.22,0,.44-.06.65-.07h1.28c.22,0,.44,0,.66.07V98.4c0,.72,0,1.34.08,1.86a4.12,4.12,0,0,0,.32,1.28,1.61,1.61,0,0,0,.68.75,2.34,2.34,0,0,0,1.13.24,2.3,2.3,0,0,0,1.12-.24,1.65,1.65,0,0,0,.67-.75,4.12,4.12,0,0,0,.32-1.28c.05-.52.08-1.14.08-1.86V91.76c.23,0,.46-.06.67-.07h1.28c.21,0,.44,0,.66.07V99a12.47,12.47,0,0,1-.21,2.38,4.63,4.63,0,0,1-.77,1.84,3.59,3.59,0,0,1-1.47,1.18,6.78,6.78,0,0,1-4.7,0,3.62,3.62,0,0,1-1.48-1.18,4.77,4.77,0,0,1-.76-1.84,12.47,12.47,0,0,1-.21-2.38Z"/><path class="cls-5" d="M261.36,94h-3.18a5.83,5.83,0,0,1-.11-1.12,5.68,5.68,0,0,1,.11-1.09h9a5.68,5.68,0,0,1,.11,1.09,5.83,5.83,0,0,1-.11,1.12H264v10.59l-.64.06-.62,0-.65,0c-.24,0-.47,0-.71-.07Z"/><path class="cls-5" d="M269.14,91.76a8.22,8.22,0,0,1,1.3-.1,8.53,8.53,0,0,1,1.31.1v12.8a8.57,8.57,0,0,1-2.61,0Z"/><path class="cls-5" d="M279.63,104.77a5.79,5.79,0,0,1-2.49-.5,4.58,4.58,0,0,1-1.72-1.38,5.93,5.93,0,0,1-1-2.08,9.84,9.84,0,0,1-.33-2.62,10.18,10.18,0,0,1,.33-2.65,6,6,0,0,1,1-2.1,4.51,4.51,0,0,1,1.72-1.39,6.48,6.48,0,0,1,5,0,4.59,4.59,0,0,1,1.72,1.39,6,6,0,0,1,1,2.1,10.18,10.18,0,0,1,.33,2.65,9.84,9.84,0,0,1-.33,2.62,5.93,5.93,0,0,1-1,2.08,4.66,4.66,0,0,1-1.72,1.38A5.81,5.81,0,0,1,279.63,104.77Zm0-2.17q2.76,0,2.76-4.41a6.57,6.57,0,0,0-.66-3.31,2.26,2.26,0,0,0-2.08-1.11c-1.86,0-2.79,1.48-2.79,4.42S277.78,102.6,279.63,102.6Z"/><path class="cls-5" d="M287.52,91.76a5.48,5.48,0,0,1,1.05-.1,6.08,6.08,0,0,1,1.1.1l4.94,8.15V91.76a7.64,7.64,0,0,1,1.23-.1,5.32,5.32,0,0,1,1.07.1v12.8a5.67,5.67,0,0,1-1,.1,6.22,6.22,0,0,1-1.09-.1l-5-8.13v8.13a6.34,6.34,0,0,1-1.16.1,5.94,5.94,0,0,1-1.13-.1Z"/><path class="cls-5" d="M301.91,98.63a6.89,6.89,0,0,1-1.09-.51,3.09,3.09,0,0,1-.81-.65,2.78,2.78,0,0,1-.53-.92,4,4,0,0,1-.19-1.28,3.81,3.81,0,0,1,.32-1.6,3.18,3.18,0,0,1,.88-1.17,3.87,3.87,0,0,1,1.37-.71,6.2,6.2,0,0,1,1.79-.24,8.32,8.32,0,0,1,1.7.16,13.48,13.48,0,0,1,1.66.46,6.48,6.48,0,0,1-.56,2L305.9,94a4.91,4.91,0,0,0-.58-.18,6.15,6.15,0,0,0-.71-.12c-.26,0-.55,0-.89,0a4.3,4.3,0,0,0-.61,0,1.7,1.7,0,0,0-.56.2,1,1,0,0,0-.41.42A1.37,1.37,0,0,0,302,95a1.29,1.29,0,0,0,.12.59,1.36,1.36,0,0,0,.34.41,2.12,2.12,0,0,0,.48.29l.54.22,1.06.41c.45.18.86.36,1.23.55a3.55,3.55,0,0,1,.94.7,3,3,0,0,1,.59,1,4.42,4.42,0,0,1,.22,1.47,4.05,4.05,0,0,1-.33,1.65,3.46,3.46,0,0,1-1,1.28,4.33,4.33,0,0,1-1.53.84,6.85,6.85,0,0,1-2.11.3c-.39,0-.74,0-1.05,0a7.83,7.83,0,0,1-.88-.11,5.93,5.93,0,0,1-.83-.21,8.72,8.72,0,0,1-.85-.3,7.32,7.32,0,0,1,.19-1.07c.1-.38.21-.75.34-1.13a9.48,9.48,0,0,0,1.41.45,6.2,6.2,0,0,0,1.4.15,3.18,3.18,0,0,0,1.76-.42,1.41,1.41,0,0,0,.64-1.27,1.43,1.43,0,0,0-.54-1.19,2.44,2.44,0,0,0-.54-.33c-.2-.09-.41-.18-.63-.26Z"/><polygon class="cls-6" points="311.95 91.06 311.95 94.24 318.53 98.05 311.95 101.87 311.95 105.04 324.01 98.05 311.95 91.06"/></g></g></svg>