<svg xmlns="http://www.w3.org/2000/svg" viewBox="0 0 324 94.5"><defs><style>.cls-1{fill:#1a2854;}.cls-2{fill:#e5a52e;}</style></defs><g id="Layer_2" data-name="Layer 2"><g id="Layer_1-2" data-name="Layer 1"><path class="cls-1" d="M45,50.74H20.45l-4,8.16c-2.75,5.8-1.87,8.75,5.7,8.75L21.73,70H0l.39-2.36c6.59,0,8.36-2.16,11.9-9L41.59.2h2.56L56.93,58.7c1.48,6.79,2.56,9,9.24,9L65.88,70H39.33l.3-2.36c7.37,0,8.06-2.46,7-8.85ZM22.12,47.2H44.35L38,15Z"/><path class="cls-1" d="M80,61.75c-.59,3.83,2.07,6.19,7.77,1.57L89,65.09c-3.83,4.13-8.46,5.9-11.5,5.9-3.94,0-7.77-2.75-6.69-10l7-49.65c1-6.89,1-7.87-5.6-7.87l.39-2.26L87.81.2a.91.91,0,0,1,.89,1Z"/><path class="cls-1" d="M105.31,61.75c-.59,3.83,2.06,6.19,7.77,1.57l1.18,1.77c-3.84,4.13-8.46,5.9-11.51,5.9-3.93,0-7.76-2.75-6.68-10l7-49.65c1-6.89,1-7.87-5.61-7.87l.4-2.26,15.24-1a.9.9,0,0,1,.88,1Z"/><path class="cls-1" d="M130.69,61.75c-.59,3.83,2.06,6.19,7.76,1.57l1.18,1.77c-3.83,4.13-8.45,5.9-11.4,5.9-3.94,0-7.87-2.75-6.79-10l4.23-29.59c.49-3.64-.29-7.57-6-2.95l-1.18-1.87c3.64-3.15,6.89-4.23,9.64-4.23,4,0,8,2.85,6.88,10Z"/><path class="cls-2" d="M126.46,7.47A43.57,43.57,0,0,1,134.32,0a26.1,26.1,0,0,1,6,7.47,34.81,34.81,0,0,1-8.06,7.67A23.82,23.82,0,0,1,126.46,7.47Z"/><path class="cls-1" d="M181.52,61.75c-.59,3.83,2.06,6.19,7.77,1.57l1.18,1.77C186.53,69.32,182,71,179,71c-3.93,0-7.67-2.75-6.59-10l1.48-9.63C168,62,161.56,71,155,71c-5.8,0-10-7.47-10-16.42,0-13.17,6-32.74,30.09-32.74A56.42,56.42,0,0,1,185.94,23c.49.1,1,.49.89,1Zm-4-37c-15.54-3.44-23.21,11.31-23.21,29.3,0,6.1,2.36,10.72,5,10.72,4,0,11.11-10.82,15.24-19.57Z"/><path class="cls-1" d="M209.63,42.58c5.51-10.13,13.87-20.75,21-20.75,5.7,0,8.26,4.32,7.08,12.49l-3.94,27.43c-.59,3.83,2.07,6.19,7.77,1.57l1.18,1.77c-3.73,4.13-8.45,5.9-11.4,5.9-3.94,0-7.87-2.75-6.79-10l3.44-25c.79-5.31.4-7.77-2.06-7.77-3.93,0-12.69,11.5-16.82,19.37L205.9,70l-8.75.88a.88.88,0,0,1-.89-.88l5.61-38.64c.49-3.64-.3-7.57-6-2.95l-1.18-1.87c3.64-3.15,6.88-4.23,9.63-4.23,4,0,8,2.85,6.89,10Z"/><path class="cls-1" d="M283.88,32.35c0,2.46-6.3,5.8-9.74,4,2.85-6,2.36-11.5-4.13-11.5-9.14,0-14.55,15.63-14.55,24.87,0,15,10.52,19.47,23.3,11l.79,2.06c-18.19,15-33.63,7.77-33.63-11.9,0-19,13.87-29.1,24.68-29.1C276.31,21.83,283.88,23.6,283.88,32.35Z"/><path class="cls-1" d="M297.26,41.3a46.18,46.18,0,0,0-1,9.24c0,14.36,10.33,18.78,23.21,10.23l.78,2.06c-18.19,15-33.62,7.77-33.62-11.9,0-18.87,13.57-29.1,24.48-29.1,5.41,0,12.88,2.26,12.88,10.23C324,42.87,310.33,47,297.26,41.3Zm.68-2.26c8.26,2.45,17.8.49,17.8-8.95,0-3.05-1.47-5.21-5-5.21C304.14,24.88,300,31.66,297.94,39Z"/><rect class="cls-2" y="81.3" width="114.25" height="13.2"/><path class="cls-1" d="M123.13,93c2,0,2.8-.82,2.8-2.1,0-3.33-6.31-1.82-6.31-6.2,0-2.19,1.48-3.42,3.94-3.42a5.36,5.36,0,0,1,3,.84,2.92,2.92,0,0,1,.32,1.73,5.44,5.44,0,0,0-3.27-1.11c-1.59,0-2.39.69-2.39,1.75,0,3.1,6.29,1.72,6.29,6.2,0,2.86-2,3.79-4.44,3.79a7.39,7.39,0,0,1-3.52-.8,2.86,2.86,0,0,1-.33-1.73A7.57,7.57,0,0,0,123.13,93Z"/><path class="cls-1" d="M140.55,93.11a18,18,0,0,1,.45-2.44l2.26-8.87a1.66,1.66,0,0,1,.78-.13,1.4,1.4,0,0,1,.75.13l-3.24,12.33a4.48,4.48,0,0,1-1.09.1,4.81,4.81,0,0,1-1.12-.1l-2-8.56c-.2-.85-.41-1.92-.54-2.86h-.07a26.13,26.13,0,0,1-.53,2.9l-2.12,8.52a4.72,4.72,0,0,1-1.11.1,4.53,4.53,0,0,1-1.09-.1l-3.08-12.31a1.58,1.58,0,0,1,.79-.15,1.64,1.64,0,0,1,.83.15l2.12,8.74a23.55,23.55,0,0,1,.43,2.55h.07a23.53,23.53,0,0,1,.43-2.51l2.23-8.93a4.57,4.57,0,0,1,1.1-.1,4.75,4.75,0,0,1,1.12.1L140,90.6c.18.8.35,1.64.46,2.51Z"/><path class="cls-1" d="M154.83,81.71a1.75,1.75,0,0,1,.12.71,1.71,1.71,0,0,1-.12.71h-6.24v4h5.79a1.49,1.49,0,0,1,.13.69,1.6,1.6,0,0,1-.13.72h-5.79v4.15H155a1.59,1.59,0,0,1,.12.71,1.69,1.69,0,0,1-.12.73h-8V81.71Z"/><path class="cls-1" d="M165.33,81.71a1.75,1.75,0,0,1,.12.71,1.71,1.71,0,0,1-.12.71h-6.24v4h5.79a1.49,1.49,0,0,1,.13.69,1.6,1.6,0,0,1-.13.72h-5.79v4.15h6.4a1.59,1.59,0,0,1,.12.71,1.69,1.69,0,0,1-.12.73h-8V81.71Z"/><path class="cls-1" d="M168,81.82a17.21,17.21,0,0,1,3.31-.29c3.33,0,5.33,1.27,5.33,4.13s-2,4.17-4.81,4.17a20.06,20.06,0,0,1-2.21-.14V94a1.7,1.7,0,0,1-.8.13A1.8,1.8,0,0,1,168,94Zm1.62,1.28v5.15a12.59,12.59,0,0,0,2,.16c2.15,0,3.38-.73,3.38-2.62S173.54,83,171.3,83A8.58,8.58,0,0,0,169.59,83.1Z"/><path class="cls-1" d="M181.94,93c2,0,2.8-.82,2.8-2.1,0-3.33-6.31-1.82-6.31-6.2,0-2.19,1.48-3.42,3.94-3.42a5.41,5.41,0,0,1,3,.84,2.92,2.92,0,0,1,.32,1.73,5.49,5.49,0,0,0-3.28-1.11c-1.59,0-2.39.69-2.39,1.75,0,3.1,6.29,1.72,6.29,6.2,0,2.86-2.05,3.79-4.44,3.79a7.42,7.42,0,0,1-3.52-.8,2.78,2.78,0,0,1-.32-1.73A7.53,7.53,0,0,0,181.94,93Z"/><path class="cls-1" d="M193.25,83.15V94a1.7,1.7,0,0,1-.8.13,1.8,1.8,0,0,1-.82-.13V83.15h-3.86a1.67,1.67,0,0,1-.13-.73,1.58,1.58,0,0,1,.13-.71h9.33a1.58,1.58,0,0,1,.13.71,1.67,1.67,0,0,1-.13.73Z"/><path class="cls-1" d="M204.69,90.53h-5.21L198.26,94a2,2,0,0,1-.88.15,1.6,1.6,0,0,1-.8-.15l4.54-12.31a3.85,3.85,0,0,1,1-.1,3.8,3.8,0,0,1,1,.1L207.63,94a1.72,1.72,0,0,1-.82.15,2,2,0,0,1-.88-.15Zm-.48-1.39-1-2.67a33,33,0,0,1-1.14-3.85h-.07a32.34,32.34,0,0,1-1.14,3.83L200,89.14Z"/><path class="cls-1" d="M209.7,81.8a1.8,1.8,0,0,1,.82-.13,1.7,1.7,0,0,1,.8.13V87h1.48l3.9-5.22a2.65,2.65,0,0,1,1-.15,1.78,1.78,0,0,1,.87.15l-4.45,5.91L219,94a1.78,1.78,0,0,1-.94.15A2.64,2.64,0,0,1,217,94l-4.3-5.52h-1.37V94a1.7,1.7,0,0,1-.8.13,1.8,1.8,0,0,1-.82-.13Z"/><path class="cls-1" d="M228.91,81.71a1.58,1.58,0,0,1,.13.71,1.55,1.55,0,0,1-.13.71h-6.23v4h5.79a1.5,1.5,0,0,1,.12.69,1.61,1.61,0,0,1-.12.72h-5.79v4.15h6.39a1.58,1.58,0,0,1,.13.71,1.67,1.67,0,0,1-.13.73h-8V81.71Z"/><path class="cls-1" d="M235,93c2,0,2.79-.82,2.79-2.1,0-3.33-6.3-1.82-6.3-6.2,0-2.19,1.48-3.42,3.94-3.42a5.38,5.38,0,0,1,3,.84,2.92,2.92,0,0,1,.32,1.73,5.49,5.49,0,0,0-3.28-1.11c-1.58,0-2.38.69-2.38,1.75,0,3.1,6.29,1.72,6.29,6.2,0,2.86-2,3.79-4.44,3.79a7.46,7.46,0,0,1-3.53-.8A2.93,2.93,0,0,1,231.1,92,7.57,7.57,0,0,0,235,93Z"/><path class="cls-1" d="M248.45,93c2,0,2.8-.82,2.8-2.1,0-3.33-6.31-1.82-6.31-6.2,0-2.19,1.48-3.42,3.94-3.42a5.36,5.36,0,0,1,3,.84,2.92,2.92,0,0,1,.32,1.73A5.44,5.44,0,0,0,249,82.76c-1.59,0-2.39.69-2.39,1.75,0,3.1,6.29,1.72,6.29,6.2,0,2.86-2.05,3.79-4.44,3.79a7.46,7.46,0,0,1-3.53-.8,2.93,2.93,0,0,1-.32-1.73A7.57,7.57,0,0,0,248.45,93Z"/><path class="cls-1" d="M263.19,81.71a1.58,1.58,0,0,1,.13.71,1.55,1.55,0,0,1-.13.71H257v4h5.79a1.5,1.5,0,0,1,.12.69,1.61,1.61,0,0,1-.12.72H257v4.15h6.4a1.75,1.75,0,0,1,.12.71,1.85,1.85,0,0,1-.12.73h-8V81.71Z"/><path class="cls-1" d="M265.84,81.82a16.79,16.79,0,0,1,3.27-.29c3.3,0,5.28,1.19,5.28,3.94A3.46,3.46,0,0,1,272,89l3.17,5a1.67,1.67,0,0,1-.86.15,2.64,2.64,0,0,1-1.07-.15l-2.85-4.59c-.14,0-.53,0-.8,0a19.62,19.62,0,0,1-2.17-.14V94a1.7,1.7,0,0,1-.8.13,1.8,1.8,0,0,1-.82-.13Zm1.62,1.28v4.76a13.57,13.57,0,0,0,1.94.16c2.14,0,3.33-.7,3.33-2.45S271.34,83,269.13,83A8.31,8.31,0,0,0,267.46,83.1Z"/><path class="cls-1" d="M281.22,93a22,22,0,0,1,.76-2.94l2.91-8.26a1.46,1.46,0,0,1,.82-.15,1.79,1.79,0,0,1,.83.15l-4.42,12.31a3.72,3.72,0,0,1-1,.1,3.63,3.63,0,0,1-1-.1l-4.4-12.31a1.74,1.74,0,0,1,.83-.15,1.94,1.94,0,0,1,.86.15l2.94,8.32a20.91,20.91,0,0,1,.76,2.88Z"/><path class="cls-1" d="M288.6,81.8a1.8,1.8,0,0,1,.82-.13,1.7,1.7,0,0,1,.8.13V94a1.7,1.7,0,0,1-.8.13,1.8,1.8,0,0,1-.82-.13Z"/><path class="cls-1" d="M299.22,82.8c-2.7,0-4.68,1.53-4.68,5.13S296.39,93,299.05,93a7.19,7.19,0,0,0,3.13-.73,3,3,0,0,1-.44,1.53,7.19,7.19,0,0,1-3.18.71c-3.56,0-5.7-2.42-5.7-6.45,0-4.43,2.57-6.75,6.06-6.75a5.8,5.8,0,0,1,2.74.6,2.69,2.69,0,0,1,.38,1.59A6,6,0,0,0,299.22,82.8Z"/><path class="cls-1" d="M312.35,81.71a1.59,1.59,0,0,1,.12.71,1.56,1.56,0,0,1-.12.71h-6.24v4h5.79a1.49,1.49,0,0,1,.13.69,1.6,1.6,0,0,1-.13.72h-5.79v4.15h6.4a1.59,1.59,0,0,1,.12.71,1.69,1.69,0,0,1-.12.73h-8V81.71Z"/><path class="cls-1" d="M318.41,93c1.95,0,2.79-.82,2.79-2.1,0-3.33-6.3-1.82-6.3-6.2,0-2.19,1.47-3.42,3.93-3.42a5.41,5.41,0,0,1,3.05.84,2.92,2.92,0,0,1,.32,1.73,5.49,5.49,0,0,0-3.28-1.11c-1.58,0-2.39.69-2.39,1.75,0,3.1,6.29,1.72,6.29,6.2,0,2.86-2,3.79-4.43,3.79a7.46,7.46,0,0,1-3.53-.8,2.93,2.93,0,0,1-.32-1.73A7.54,7.54,0,0,0,318.41,93Z"/></g></g></svg>